<?xml version="1.0" encoding="utf-8"?>
<!-- Generator: Adobe Illustrator 21.1.0, SVG Export Plug-In . SVG Version: 6.00 Build 0)  -->
<svg version="1.1" id="Layer_1" xmlns="http://www.w3.org/2000/svg" xmlns:xlink="http://www.w3.org/1999/xlink" x="0px" y="0px"
	 viewBox="0 0 566.9 82.6" style="enable-background:new 0 0 566.9 82.6;" xml:space="preserve">
<style type="text/css">
	.st0{fill:#0099FF;}
</style>
<g>
	<path class="st0" d="M540.3,0.7h-0.9h-20.2h-0.9l-26.6,81.9h21.2l5.7-17.7H540l5.7,17.7h21.2L540.3,0.7z M523.3,50.2l6-18.4l6,18.4
		H523.3z"/>
	<path class="st0" d="M185.4,82.6h21.2L180,0.7h-1h-20.2h-0.9l-26.6,81.9h21.2l5.7-17.7h21.5L185.4,82.6z M162.9,50.2l6-18.4l6,18.4
		H162.9z"/>
	<path class="st0" d="M61,41.7c0,9.2-0.2,15.1-0.7,17.7c-1,5.9-3.6,11-7.8,15.2c-5.4,5.4-12.7,8.1-22.1,8.1H0v-82h30.4
		c9.4,0,16.7,2.7,22.1,8.1c4.2,4.2,6.8,9.3,7.8,15.2C60.8,26.5,61,32.5,61,41.7z M40.9,41.7c0-10.1-0.7-16.3-2.2-18.4
		c-2.1-3.1-5.3-4.6-9.7-4.6h-8.9v46H29c4.4,0,7.6-1.5,9.7-4.6c0.8-1.2,1.4-2.8,1.7-4.8C40.7,52.8,40.9,48.3,40.9,41.7z"/>
	<path class="st0" d="M126.1,82.6H70.4V0.7h55.7v18H90.5v13.7h30.4v18H90.5v14.4h35.6V82.6z"/>
	<path class="st0" d="M276.9,82.6h-23.4L239,52.1h-6.8v30.5h-20.1V0.7h32.5c8.7,0,15.6,2.7,20.8,8.2c4.8,4.9,7.1,11,7.1,18.2
		c0,9.8-4.5,17-13.4,21.4L276.9,82.6z M252.4,27c0-2.2-0.8-4.2-2.4-5.8c-1.6-1.7-3.7-2.5-6.3-2.5h-11.4v16.6h11.4
		c2.6,0,4.7-0.8,6.3-2.5C251.6,31.2,252.4,29.3,252.4,27z"/>
	<path class="st0" d="M350.4,82.6h-17.6l-26.2-41.2v41.2h-20.1V0.7H304l26.2,41.2V0.7h20.1L350.4,82.6L350.4,82.6z"/>
	<path class="st0" d="M424.1,41.7c0,8.4-0.3,14.2-0.9,17.6c-1.1,6.1-3.5,11-7.4,14.8c-6.1,6.1-13.8,9.2-22.9,9.2s-16.8-3.1-22.9-9.2
		c-3.8-3.8-6.3-8.8-7.4-14.8c-0.6-3.4-0.9-9.2-0.9-17.6s0.3-14.2,0.9-17.6c1.1-6.1,3.5-11,7.4-14.8c6.1-6.1,13.8-9.2,22.9-9.2
		s16.8,3.1,22.9,9.2c3.8,3.8,6.3,8.8,7.4,14.8C423.8,27.4,424.1,33.3,424.1,41.7z M403.9,41.7c0-10.8-1-17.5-3-20.1
		c-1.8-2.4-4.5-3.6-8.1-3.6c-3.5,0-6.2,1.2-8.1,3.6c-2,2.6-3,9.3-3,20.1c0,10.7,1,17.4,2.9,19.9s4.6,3.8,8.2,3.8
		c3.5,0,6.3-1.3,8.2-3.8C403,59,403.9,52.4,403.9,41.7z"/>
	<g>
		<polygon class="st0" points="452.5,82.6 453.4,82.6 473.7,82.6 474.6,82.6 501.2,0.7 480.1,0.7 463.6,51.5 447.1,0.7 425.9,0.7 		
			"/>
	</g>
</g>
</svg>
